# xmcd CD database file
#
# Track frame offsets:
#	150
#	40347
#	73278
#	107758
#	152493
#	231774
#	280568
#
# Disc length: 4565 seconds
#
# Revision: 0
# Processed by: cddbd v1.5.2PL0 Copyright (c) Steve Scherf et al.
# Submitted via: CDex 1.51
#
DISCID=5811d307
DTITLE=Brad Mehldau Trio - Art Of The Trio - Back at the Vanguard
DYEAR=1900
DGENRE=Jazz
TTITLE0=1. Exit Music (for a film)
TTITLE1=2. I'll be seeing you
TTITLE2=3. London blues
TTITLE3=4. Solar
TTITLE4=5. Nice pass
TTITLE5=6. Sehnsucht
TTITLE6=7. All the things you are
EXTD=
EXTT0=
EXTT1=
EXTT2=
EXTT3=
EXTT4=
EXTT5=
EXTT6=
PLAYORDER=
